<svg viewBox="0 0 100 100" xmlns="http://www.w3.org/2000/svg">
  <defs>
    <linearGradient id="iconGrad" x1="0%" y1="0%" x2="100%" y2="100%">
      <stop offset="0%" style="stop-color:#3b82f6"/>
      <stop offset="100%" style="stop-color:#1d4ed8"/>
    </linearGradient>
  </defs>
  
  <!-- Background circle -->
  <circle cx="50" cy="50" r="45" fill="url(#iconGrad)" opacity="0.1"/>
  
  <!-- Chart bars -->
  <rect x="20" y="60" width="8" height="25" fill="url(#iconGrad)" rx="2"/>
  <rect x="32" y="50" width="8" height="35" fill="url(#iconGrad)" rx="2"/>
  <rect x="44" y="40" width="8" height="45" fill="url(#iconGrad)" rx="2"/>
  <rect x="56" y="55" width="8" height="30" fill="url(#iconGrad)" rx="2"/>
  <rect x="68" y="45" width="8" height="40" fill="url(#iconGrad)" rx="2"/>
  
  <!-- Trend line -->
  <polyline points="24,65 36,55 48,42 60,58 72,48" 
            fill="none" 
            stroke="#f59e0b" 
            stroke-width="2" 
            stroke-linecap="round"/>
  
  <!-- Data points -->
  <circle cx="24" cy="65" r="2" fill="#f59e0b"/>
  <circle cx="36" cy="55" r="2" fill="#f59e0b"/>
  <circle cx="48" cy="42" r="2" fill="#f59e0b"/>
  <circle cx="60" cy="58" r="2" fill="#f59e0b"/>
  <circle cx="72" cy="48" r="2" fill="#f59e0b"/>
  
  <!-- Base line -->
  <line x1="15" y1="85" x2="85" y2="85" stroke="#e5e7eb" stroke-width="2"/>
</svg>
